<?xml version="1.0" encoding="UTF-8"?>
<svg width="20px" height="20px" viewBox="0 0 20 20" version="1.1" xmlns="http://www.w3.org/2000/svg" xmlns:xlink="http://www.w3.org/1999/xlink">
    <!-- Generator: sketchtool 53.2 (72643) - https://sketchapp.com -->
    <title>5A110ECD-E6B8-46D8-A53F-11A69813C2E1</title>
    <desc>Created with sketchtool.</desc>
    <defs>
        <path d="M0.593886463,5.7852349 L19.4061135,5.7852349 L19.4061135,6.98881432 L0.593886463,6.98881432 L0.593886463,5.7852349 Z M6.35371179,5.06040268 L2.82969432,5.06040268 L2.82969432,3.49440716 L4.00436681,3.49440716 L4.00436681,3.85682327 L5.1790393,3.85682327 L5.1790393,3.49440716 L6.35371179,3.49440716 L6.35371179,5.06040268 Z M17.1746725,5.06040268 L13.6462882,5.06040268 L13.6462882,3.49440716 L14.8209607,3.49440716 L14.8209607,3.85682327 L16,3.85682327 L16,3.49440716 L17.1746725,3.49440716 L17.1746725,5.06040268 Z M18.4672489,20 L1.53275109,20 C0.689956332,20 0.00436681223,19.2975391 0.00436681223,18.4340045 L0.00436681223,3.49440716 C0.00436681223,2.63087248 0.689956332,1.92841163 1.53275109,1.92841163 L2.82532751,1.92841163 L2.82532751,1.08277405 C2.82969432,0.487695749 3.30131004,-7.10542736e-15 3.88646288,-7.10542736e-15 L5.29694323,-7.10542736e-15 C5.88209607,-7.10542736e-15 6.35371179,0.487695749 6.35371179,1.08277405 L6.35371179,1.92393736 L13.6462882,1.92393736 L13.6462882,1.08277405 C13.6462882,0.483221477 14.1222707,-7.10542736e-15 14.7030568,-7.10542736e-15 L16.1135371,-7.10542736e-15 C16.69869,-7.10542736e-15 17.1703057,0.487695749 17.1703057,1.08277405 L17.1703057,1.92393736 L18.4628821,1.92393736 C19.3056769,1.92393736 19.9912664,2.62639821 19.9912664,3.48993289 L19.9912664,18.4340045 C19.9956332,19.2975391 19.3100437,20 18.4672489,20 Z M1.53275109,3.13199105 C1.33624454,3.13199105 1.1790393,3.29306488 1.1790393,3.49440716 L1.1790393,18.4340045 C1.1790393,18.6308725 1.33624454,18.7964206 1.53275109,18.7964206 L18.4672489,18.7964206 C18.6593886,18.7964206 18.8209607,18.6353468 18.8209607,18.4340045 L18.8209607,3.49440716 C18.8209607,3.29306488 18.6637555,3.13199105 18.4672489,3.13199105 L16,3.13199105 L16,1.20357942 L14.8253275,1.20357942 L14.8253275,3.13199105 L5.1790393,3.13199105 L5.1790393,1.20357942 L4.00436681,1.20357942 L4.00436681,3.13199105 L1.53275109,3.13199105 Z M7.1790393,9.63758389 L9.06113537,9.63758389 L9.06113537,10.8411633 L7.1790393,10.8411633 L7.1790393,9.63758389 Z M10.9432314,9.63758389 L12.8253275,9.63758389 L12.8253275,10.8411633 L10.9432314,10.8411633 L10.9432314,9.63758389 Z M14.7030568,9.63758389 L16.5851528,9.63758389 L16.5851528,10.8411633 L14.7030568,10.8411633 L14.7030568,9.63758389 Z M3.41484716,12.049217 L5.29694323,12.049217 L5.29694323,13.2527964 L3.41484716,13.2527964 L3.41484716,12.049217 Z M7.1790393,12.049217 L9.06113537,12.049217 L9.06113537,13.2527964 L7.1790393,13.2527964 L7.1790393,12.049217 Z M10.9432314,12.049217 L12.8253275,12.049217 L12.8253275,13.2527964 L10.9432314,13.2527964 L10.9432314,12.049217 Z M14.7030568,12.049217 L16.5851528,12.049217 L16.5851528,13.2527964 L14.7030568,13.2527964 L14.7030568,12.049217 Z M3.41484716,14.4563758 L5.29694323,14.4563758 L5.29694323,15.6599553 L3.41484716,15.6599553 L3.41484716,14.4563758 Z M7.1790393,14.4563758 L9.06113537,14.4563758 L9.06113537,15.6599553 L7.1790393,15.6599553 L7.1790393,14.4563758 Z M10.9432314,14.4563758 L12.8253275,14.4563758 L12.8253275,15.6599553 L10.9432314,15.6599553 L10.9432314,14.4563758 Z" id="path-1"></path>
    </defs>
    <g id="Layout" stroke="none" stroke-width="1" fill="none" fill-rule="evenodd">
        <g id="Home" transform="translate(-1347.000000, -19.000000)">
            <g id="Icon/Calendario" transform="translate(1347.000000, 19.000000)">
                <mask id="mask-2" fill="white">
                    <use xlink:href="#path-1"></use>
                </mask>
                <g id="caledanrio" fill-rule="nonzero"></g>
                <g id="Color/Black" mask="url(#mask-2)" fill="#444444" fill-rule="evenodd">
                    <rect id="Base" x="0" y="0" width="20" height="20"></rect>
                </g>
            </g>
        </g>
    </g>
</svg>