<?xml version="1.0" encoding="UTF-8"?>
<svg width="20px" height="18px" viewBox="0 0 20 18" version="1.1" xmlns="http://www.w3.org/2000/svg" xmlns:xlink="http://www.w3.org/1999/xlink">
    <!-- Generator: sketchtool 53.2 (72643) - https://sketchapp.com -->
    <title>1FFEB8A8-0DFE-4BF1-A163-7DE562DFEA57</title>
    <desc>Created with sketchtool.</desc>
    <defs>
        <path d="M15.047619,10.9366197 L15.047619,3.2629108 C15.047619,2.15375587 14.0873016,1.25 12.9047619,1.25 L2.16666667,1.25 C0.984126984,1.25 0.0238095238,2.15375587 0.0238095238,3.2629108 L0.0238095238,10.9366197 C0.0238095238,12.0457746 0.984126984,12.9495305 2.16666667,12.9495305 L2.24603175,12.9495305 L2.24603175,14.4448357 C2.24603175,14.8474178 2.47619048,15.1924883 2.83333333,15.3650235 C2.97619048,15.4307512 3.11904762,15.463615 3.26984127,15.463615 C3.53174603,15.463615 3.78571429,15.3650235 3.97619048,15.1842723 L6.37301587,12.9495305 L12.8968254,12.9495305 C14.0873016,12.9577465 15.047619,12.0539906 15.047619,10.9366197 Z M2.9047619,11.5938967 L2.16666667,11.5938967 C1.71428571,11.5938967 1.34126984,11.2981221 1.34126984,10.9448357 L1.34126984,3.2629108 C1.34126984,2.90140845 1.71428571,2.61384977 2.16666667,2.61384977 L12.9047619,2.61384977 C13.3571429,2.61384977 13.7301587,2.90962441 13.7301587,3.2629108 L13.7301587,10.9366197 C13.7301587,11.2981221 13.3571429,11.5856808 12.9047619,11.5856808 L6.12698413,11.5856808 C5.96825397,11.5856808 5.80952381,11.6514085 5.68253968,11.758216 L3.56349206,13.7382629 L3.56349206,12.2676056 C3.56349206,11.8978873 3.26984127,11.5938967 2.9047619,11.5938967 Z M17.4761905,4.97183099 L15.9920635,4.97183099 L15.9920635,6.39319249 L17.4761905,6.39319249 C17.9761905,6.39319249 18.3888889,6.81220657 18.3888889,7.33802817 L18.3888889,13.5328638 C18.3888889,14.0504695 17.984127,14.4776995 17.4761905,14.4776995 L16.6746032,14.4776995 C16.2936508,14.4776995 15.984127,14.7981221 15.984127,15.1924883 L15.984127,16.778169 L13.9603175,14.6830986 C13.8333333,14.5516432 13.6587302,14.4776995 13.4761905,14.4776995 L9.88095238,14.4776995 C9.38095238,14.4776995 8.96825397,14.0586854 8.96825397,13.5328638 L8.96825397,13.2370892 L7.61111111,13.2370892 L7.61111111,13.5328638 C7.61111111,14.8392019 8.63492063,15.899061 9.8968254,15.899061 L13.2063492,15.899061 L15.515873,18.2899061 C15.7222222,18.5035211 15.9920635,18.6185446 16.2857143,18.6185446 C16.4285714,18.6185446 16.5714286,18.5856808 16.6984127,18.536385 C17.1031746,18.3638498 17.3730159,17.9530516 17.3730159,17.5011737 L17.3730159,15.907277 L17.484127,15.907277 C18.7460317,15.907277 19.7698413,14.8474178 19.7698413,13.5410798 L19.7698413,7.32981221 C19.7619048,6.03169014 18.7380952,4.97183099 17.4761905,4.97183099 Z" id="path-1"></path>
    </defs>
    <g id="Layout" stroke="none" stroke-width="1" fill="none" fill-rule="evenodd">
        <g id="Home" transform="translate(-1293.000000, -21.000000)">
            <g id="Icon/Chat" transform="translate(1293.000000, 20.000000)">
                <mask id="mask-2" fill="white">
                    <use xlink:href="#path-1"></use>
                </mask>
                <g id="chat" fill-rule="nonzero"></g>
                <g id="Color/Black" mask="url(#mask-2)" fill="#444444" fill-rule="evenodd">
                    <rect id="Base" x="0" y="0" width="20" height="20"></rect>
                </g>
            </g>
        </g>
    </g>
</svg>