<?xml version="1.0" encoding="UTF-8"?>
<svg width="18px" height="20px" viewBox="0 0 18 20" version="1.1" xmlns="http://www.w3.org/2000/svg" xmlns:xlink="http://www.w3.org/1999/xlink">
    <!-- Generator: sketchtool 53.2 (72643) - https://sketchapp.com -->
    <title>9639E006-EB1F-4736-9266-AEA52756BCD3</title>
    <desc>Created with sketchtool.</desc>
    <defs>
        <path d="M8.3419244,2.78423237 C8.3419244,1.90871369 9.08075601,1.19502075 9.9871134,1.19502075 C10.8934708,1.19502075 11.6323024,1.90871369 11.6323024,2.78423237 L11.6323024,2.8879668 L12.8651203,2.8879668 L12.8651203,2.78423237 C12.8651203,1.24896266 11.5764605,0 9.99140893,0 C8.40206186,0 7.10910653,1.24896266 7.10910653,2.78423237 L7.10910653,2.8879668 L8.3419244,2.8879668 L8.3419244,2.78423237 L8.3419244,2.78423237 Z M17.9639175,13 L17.8994845,12.9087137 L17.8908935,12.9004149 C17.757732,12.746888 17.6030928,12.6099585 17.4484536,12.473029 C16.8599656,11.9460581 16.0524055,11.219917 15.8762887,9.08298755 C15.6314433,6.09128631 13.5309278,3.06224066 9.9871134,3.06224066 C6.4475945,3.06224066 4.34278351,6.09128631 4.09364261,9.08298755 C3.91752577,11.2157676 3.10996564,11.9377593 2.52147766,12.4688797 L2.5128866,12.4771784 C2.35395189,12.6182573 2.20360825,12.7510373 2.0790378,12.9004149 L2.01460481,12.9875519 L2.01030928,12.9958506 C1.56786942,13.780083 1.66237113,14.7385892 1.72250859,15.3692946 C1.73969072,15.5145228 1.75257732,15.6639004 1.75257732,15.7676349 L1.75257732,16.120332 L2.07044674,16.2904564 C3.42783505,17.0207469 5.06872852,17.4813278 7.10910653,17.6929461 C7.11769759,18.2323651 7.35395189,18.7551867 7.77920962,19.1659751 C8.32044674,19.6929461 9.12371134,19.9958506 9.98281787,19.9958506 C11.5549828,19.9958506 12.8393471,18.966805 12.8694158,17.6887967 C14.9097938,17.4771784 16.5463918,17.0207469 17.9080756,16.2904564 L18.225945,16.120332 L18.225945,15.7676349 C18.225945,15.6929461 18.2345361,15.6099585 18.2431271,15.5062241 C18.2474227,15.4605809 18.2517182,15.4149378 18.2560137,15.3651452 C18.3118557,14.7427386 18.4063574,13.7883817 17.9639175,13 Z M9.98281787,18.8091286 C9.45017182,18.8091286 8.96477663,18.6348548 8.65120275,18.3236515 C8.48367698,18.1618257 8.38058419,17.9792531 8.35051546,17.7883817 C8.87027491,17.813278 9.41580756,17.8298755 9.98281787,17.8298755 C10.5541237,17.8298755 11.0996564,17.8174274 11.6194158,17.7883817 C11.5249141,18.3609959 10.8290378,18.8091286 9.98281787,18.8091286 Z M9.98281787,4.25726141 C12.9037801,4.25726141 14.4458763,6.80912863 14.6434708,9.17842324 C14.8582474,11.7717842 15.9063574,12.7178423 16.6022337,13.340249 L16.6065292,13.3443983 C16.6365979,13.3692946 16.6623711,13.3941909 16.6881443,13.4190871 C16.7697595,13.4937759 16.8427835,13.560166 16.8986254,13.6224066 C17.1219931,14.0829876 17.0618557,14.7510373 17.0189003,15.2448133 L17.0146048,15.2738589 C17.0103093,15.3070539 17.0103093,15.340249 17.0060137,15.373444 C17.0060137,15.3858921 17.0017182,15.3983402 17.0017182,15.406639 C15.2835052,16.2489627 13.0498282,16.6390041 9.98281787,16.6390041 C6.91151203,16.6390041 4.67783505,16.2448133 2.95962199,15.4024896 C2.95532646,15.3609959 2.95103093,15.3236515 2.95103093,15.2821577 L2.95103093,15.2697095 C2.90378007,14.8049793 2.83505155,14.0995851 3.06701031,13.6224066 C3.14003436,13.5435685 3.23453608,13.4564315 3.3419244,13.3609959 L3.35910653,13.3443983 C4.05498282,12.7219917 5.10738832,11.7842324 5.32216495,9.18257261 C5.51975945,6.80912863 7.06185567,4.25726141 9.98281787,4.25726141 Z" id="path-1"></path>
    </defs>
    <g id="Layout" stroke="none" stroke-width="1" fill="none" fill-rule="evenodd">
        <g id="Home" transform="translate(-1237.000000, -20.000000)">
            <g id="notifiche" transform="translate(1236.000000, 16.000000)">
                <g id="Icon/Notifiche2" transform="translate(0.000000, 4.000000)">
                    <mask id="mask-2" fill="white">
                        <use xlink:href="#path-1"></use>
                    </mask>
                    <g id="notifiche2" fill-rule="nonzero"></g>
                    <g id="Color/Black" mask="url(#mask-2)" fill="#444444" fill-rule="evenodd">
                        <rect id="Base" x="0" y="0" width="20" height="20"></rect>
                    </g>
                </g>
            </g>
        </g>
    </g>
</svg>