<?xml version="1.0" encoding="UTF-8"?>
<svg width="20px" height="20px" viewBox="0 0 20 20" version="1.1" xmlns="http://www.w3.org/2000/svg" xmlns:xlink="http://www.w3.org/1999/xlink">
    <!-- Generator: sketchtool 53.2 (72643) - https://sketchapp.com -->
    <title>C64BEE40-FD6D-4ABF-BB78-1312CED10810</title>
    <desc>Created with sketchtool.</desc>
    <defs>
        <path d="M18.6442397,7.35594337 L17.4596428,7.35594337 C17.3740885,7.35594337 17.334602,7.33618703 17.3280209,7.33618703 C17.2424666,7.06618373 17.1371691,6.86862035 17.0121283,6.61837339 C16.9726418,6.53934804 17.0055473,6.49324992 17.0252905,6.46690813 L17.8808328,5.61738558 C18.4073203,5.09054988 18.4073203,4.22785644 17.8808328,3.6944353 L16.2816269,2.09417188 C15.7485583,1.56075074 14.8864349,1.56075074 14.3533663,2.09417188 L13.4978241,2.95027988 C13.4517564,3.00296345 13.3727833,2.98979256 13.3135534,2.96345077 L13.1358639,2.87125453 C12.9976609,2.79881462 12.866039,2.73296016 12.6751873,2.6671057 C12.6686062,2.66052025 12.6488629,2.62100757 12.6488629,2.53539677 L12.6488629,1.36318736 C12.6488629,0.579519262 11.8393884,0 11.1220491,0 L8.8713149,0 C8.15397564,0 7.34450106,0.586104709 7.34450106,1.36318736 L7.34450106,2.53539677 C7.34450106,2.62100757 7.32475778,2.66052025 7.30501449,2.67369114 C7.10100058,2.74613105 6.92989213,2.8251564 6.74562149,2.9107672 L6.64032399,2.96345077 C6.54160757,3.0095489 6.49553992,2.97003622 6.48237773,2.95027988 L5.63341658,2.09417188 C5.10034796,1.56075074 4.23822463,1.56075074 3.71173709,2.09417188 L2.12569341,3.68784985 C1.59920588,4.21468554 1.59262478,5.07737899 2.11911231,5.61080013 L2.97465455,6.48007903 C3.02072221,6.52617715 3.0273033,6.59203161 2.99439783,6.65130063 L2.9220058,6.789595 C2.84303267,6.92788936 2.75747844,7.09252552 2.68508641,7.32301613 C2.67850531,7.32960158 2.63243766,7.34935792 2.54688343,7.34935792 L1.36228649,7.34935792 C0.579136284,7.34935792 0,8.1593678 0,8.87718143 L0,11.129404 C0,11.8472176 0.585717378,12.6572275 1.36228649,12.6572275 L2.54688343,12.6572275 C2.63243766,12.6572275 2.67192422,12.6769839 2.68508641,12.6901548 C2.77064063,12.9469872 2.86935704,13.1247942 2.96149236,13.2960158 L3.00097893,13.3684557 C3.00756002,13.3882121 3.04046549,13.4408956 2.97465455,13.5001646 L2.1388556,14.3233454 C1.88219292,14.5801778 1.73740885,14.922621 1.73740885,15.2848205 C1.73740885,15.6470201 1.88219292,15.9894633 2.1388556,16.2528811 L3.73148038,17.8399737 C4.264549,18.3733948 5.12667233,18.3668094 5.65974096,17.8399737 L6.5152832,16.9772802 C6.56135086,16.9245966 6.64032399,16.9377675 6.69297274,16.9641093 L6.87066228,17.0497201 C7.00886526,17.12216 7.14048714,17.1880145 7.33133887,17.2538689 C7.33791997,17.2604544 7.35766325,17.3065525 7.35766325,17.3855779 L7.35766325,18.6368126 C7.35766325,19.4204807 8.16713783,20 8.88447709,20 L11.1352113,20 C11.8591316,20 12.6620251,19.4138953 12.6620251,18.6368126 L12.6620251,17.3855779 C12.6620251,17.2999671 12.6817684,17.2604544 12.6949306,17.2472835 C12.8989445,17.1748436 13.070053,17.0958182 13.2609047,17.003622 L13.3596211,16.9575239 C13.4583375,16.9114257 13.5044052,16.9509384 13.5175674,16.9706948 L14.3665285,17.8268028 C14.6231912,18.0836352 14.9654081,18.228515 15.3273682,18.228515 L15.3273682,18.228515 C15.6893284,18.228515 16.0315453,18.0836352 16.288208,17.8268028 L17.8742517,16.2331248 C18.1309144,15.9762924 18.2756984,15.6338492 18.2691173,15.2650642 C18.2691173,14.9028647 18.1243333,14.553836 17.8610895,14.2970036 L17.0318716,13.4738229 C16.985804,13.4277247 16.9792229,13.3684557 17.0055473,13.3157721 L17.0845204,13.1840632 C17.1634935,13.0523543 17.2490477,12.900889 17.3214398,12.6703984 C17.3280209,12.663813 17.3740885,12.6440566 17.4530617,12.6440566 L18.6376586,12.6440566 C19.4208088,12.6440566 19.9999451,11.8340468 19.9999451,11.1162331 L19.9999451,8.86401054 C20.0065262,8.1593678 19.4208088,7.35594337 18.6442397,7.35594337 Z M18.7824427,11.1359895 C18.7824427,11.2545275 18.6771452,11.4191636 18.6442397,11.43892 L17.4596428,11.43892 C16.8278577,11.43892 16.3474378,11.7616068 16.1631672,12.3081989 C16.1236806,12.4201515 16.0841941,12.4860059 16.0249642,12.5913731 L15.9262478,12.7691801 C15.6432608,13.3026013 15.7485583,13.9413895 16.1763294,14.3694435 L17.0055473,15.1926243 C17.0384527,15.2255515 17.0450338,15.2650642 17.0450338,15.291406 C17.0450338,15.3177478 17.0384527,15.3572605 17.0055473,15.3901877 L15.4195036,16.9838657 C15.3536926,17.0497201 15.2944628,17.0497201 15.2352329,16.9838657 L14.3862718,16.1277577 C13.978244,15.71946 13.3727833,15.6206783 12.8331336,15.8709253 L12.7278361,15.9236088 C12.5764709,15.9960487 12.444849,16.0619032 12.2803217,16.1145868 C11.747253,16.3055647 11.4313605,16.7863023 11.4313605,17.4053342 L11.4379416,18.6368126 C11.4116172,18.6960817 11.253671,18.8014488 11.1286302,18.8014488 L8.87789599,18.8014488 C8.7594363,18.8014488 8.59490895,18.6960817 8.57516566,18.6631544 L8.57516566,17.4119197 C8.57516566,16.7928877 8.25927314,16.3055647 7.72620452,16.1211722 C7.61432592,16.0816595 7.5287717,16.0355614 7.43663638,15.9894633 C7.37082544,15.9565361 7.2984334,15.9170234 7.21946027,15.8840961 C7.02202745,15.7918999 6.81143243,15.7458018 6.60741852,15.7458018 C6.25203943,15.7458018 5.90982254,15.8840961 5.65315987,16.1409285 L4.79761763,16.9970365 C4.74496887,17.0497201 4.65283356,17.0497201 4.6001848,16.9970365 L3.00756002,15.409944 C2.97465455,15.3770168 2.96807346,15.3375041 2.96807346,15.3111623 C2.96807346,15.2848205 2.97465455,15.2518933 3.00756002,15.2189661 L3.84335898,14.3957853 C4.2711301,13.9743168 4.36984651,13.3421139 4.09344055,12.8152782 L4.05395399,12.7362529 C3.98156195,12.604544 3.91575101,12.4860059 3.86310226,12.3147843 C3.67883162,11.7681923 3.19841175,11.4455054 2.56662671,11.4455054 L1.40835415,11.4520909 C1.3491243,11.4257491 1.24382679,11.2676984 1.24382679,11.1491604 L1.24382679,8.89693777 C1.24382679,8.77839974 1.3491243,8.61376358 1.38202977,8.59400724 L2.56662671,8.59400724 C3.19183066,8.59400724 3.69199381,8.25814949 3.86310226,7.72472835 C3.90916992,7.58643398 3.96181867,7.49423773 4.01446742,7.39545604 L4.10660274,7.22423444 C4.3764276,6.6908133 4.28429228,6.05202502 3.86968335,5.63055647 L3.01414112,4.76127758 C2.96149236,4.70859401 2.96149236,4.61639776 3.01414112,4.56371419 L4.6067659,2.96345077 C4.65283356,2.91735265 4.75154997,2.91735265 4.79761763,2.96345077 L5.64657877,3.81955878 C6.05460661,4.22785644 6.66006727,4.32663813 7.19313589,4.07639118 L7.30501449,4.02370761 C7.44979857,3.9512677 7.58142045,3.89199868 7.7459478,3.83272967 C8.27901643,3.64175173 8.59490895,3.16101416 8.59490895,2.54198222 L8.58832785,1.39611459 C8.61465223,1.33684557 8.77259849,1.23147843 8.89105818,1.23147843 L11.1417924,1.23147843 C11.2602521,1.23147843 11.4247794,1.33684557 11.4445227,1.3697728 L11.4445227,2.54198222 C11.4445227,3.16101416 11.7604152,3.64175173 12.2934839,3.83272967 C12.4053625,3.87224234 12.4909167,3.91834047 12.583052,3.97102404 C12.6488629,4.00395127 12.721255,4.04346394 12.8002281,4.08297662 C13.3332967,4.33322358 13.9650818,4.23444188 14.3731096,3.82614422 L15.2286518,2.97003622 C15.2813006,2.91735265 15.3734359,2.9107672 15.4260847,2.97003622 L17.0187094,4.57029964 C17.0713582,4.62298321 17.0713582,4.70859401 17.0187094,4.76127758 L16.1631672,5.61080013 C15.7419772,6.03226869 15.6498419,6.65130063 15.9525722,7.25057623 C16.0315453,7.40204149 16.1039374,7.53375041 16.1631672,7.72472835 C16.3408567,8.25814949 16.8344388,8.59400724 17.4596428,8.59400724 L18.6179153,8.5874218 C18.6771452,8.61376358 18.7824427,8.77181429 18.7824427,8.89693777 L18.7824427,11.1359895 L18.7824427,11.1359895 Z M10.0032631,6.53934804 C8.0881647,6.53934804 6.53502648,8.10009878 6.53502648,10.0098782 C6.53502648,11.926243 8.09474579,13.4804083 10.0032631,13.4804083 C11.9183615,13.4804083 13.4714997,11.9196576 13.4714997,10.0098782 C13.4714997,8.09351334 11.9183615,6.53934804 10.0032631,6.53934804 Z M10.0032631,12.2555153 C8.76601739,12.2555153 7.75910999,11.247942 7.75910999,10.0098782 C7.75910999,8.77181429 8.76601739,7.76424103 10.0032631,7.76424103 C11.2405088,7.76424103 12.2474162,8.77181429 12.2474162,10.0098782 C12.2474162,11.247942 11.2405088,12.2555153 10.0032631,12.2555153 Z" id="path-1"></path>
    </defs>
    <g id="Layout" stroke="none" stroke-width="1" fill="none" fill-rule="evenodd">
        <g id="Home" transform="translate(-1399.000000, -20.000000)">
            <g id="Icon/Ingranaggio" transform="translate(1399.000000, 20.000000)">
                <mask id="mask-2" fill="white">
                    <use xlink:href="#path-1"></use>
                </mask>
                <g id="ingranaggio" fill-rule="nonzero"></g>
                <g id="Color/Black" mask="url(#mask-2)" fill="#444444" fill-rule="evenodd">
                    <rect id="Base" x="0" y="0" width="20" height="20"></rect>
                </g>
            </g>
        </g>
    </g>
</svg>