<?xml version="1.0" encoding="utf-8"?>
<svg width="602px" height="156px" viewBox="0 0 602 156" version="1.1" xmlns:xlink="http://www.w3.org/1999/xlink" xmlns="http://www.w3.org/2000/svg">
  <g id="logo-color">
    <g id="Group">
      <g id="Group">
        <path d="M16.91 10.49C14.822 11.722 13.173 13.402 11.963 15.532C10.751 17.661 10.146 20 10.146 22.546C10.146 25.136 10.762 27.494 11.993 29.623C13.225 31.753 14.874 33.443 16.941 34.696C19.008 35.949 21.252 36.575 23.674 36.575C26.095 36.575 28.318 35.96 30.344 34.727C32.369 33.497 33.976 31.805 35.166 29.655C36.356 27.505 36.952 25.136 36.952 22.546C36.952 20 36.356 17.661 35.166 15.532C33.976 13.402 32.369 11.722 30.344 10.49C28.318 9.26001 26.095 8.64197 23.674 8.64197C21.252 8.64197 18.997 9.26001 16.91 10.49L16.91 10.49ZM35.511 2.94299C39.101 4.90601 41.931 7.60901 43.997 11.053C46.064 14.499 47.097 18.33 47.097 22.546C47.097 26.763 46.064 30.605 43.997 34.07C41.931 37.536 39.101 40.261 35.511 42.243C31.92 44.226 27.933 45.218 23.549 45.218C19.165 45.218 15.177 44.226 11.587 42.243C7.995 40.261 5.16699 37.546 3.09998 34.101C1.034 30.657 0 26.804 0 22.546C0 18.33 1.034 14.499 3.09998 11.053C5.16699 7.60901 7.98499 4.90601 11.555 2.94299C15.125 0.981018 19.122 0 23.549 0C27.933 0 31.92 0.981018 35.511 2.94299L35.511 2.94299Z" transform="translate(286.94202 27.185059)" id="Shape" fill="#FF0000" fill-rule="evenodd" stroke="none" />
        <path d="M24.519 21.138C26.001 19.865 26.743 17.996 26.743 15.533C26.743 13.112 26.001 11.284 24.519 10.053C23.037 8.82202 20.897 8.20502 18.1 8.20502L10.79 8.20502C10.296 8.20502 9.896 8.60602 9.896 9.09998L9.896 22.154C9.896 22.648 10.296 23.048 10.79 23.048L18.1 23.048C20.897 23.048 23.037 22.412 24.519 21.138L24.519 21.138ZM31.565 3.97803C34.613 6.62903 36.137 10.376 36.137 15.219C36.137 20.314 34.603 24.27 31.534 27.088C28.465 29.907 24.154 31.315 18.601 31.315L9.896 31.315L9.896 42.052C9.896 43.04 9.09399 43.841 8.10699 43.841L1.789 43.841C0.801025 43.841 0 43.04 0 42.052L0 1.789C0 0.801025 0.801025 0 1.789 0L18.601 0C24.196 0 28.517 1.32599 31.565 3.97803L31.565 3.97803Z" transform="translate(340.552 27.873047)" id="Shape" fill="#FF0000" fill-rule="evenodd" stroke="none" />
        <path d="M1.789 0L31.593 0C32.58 0 33.381 0.801025 33.381 1.789L33.381 6.41602C33.381 7.40405 32.58 8.20502 31.593 8.20502L10.79 8.20502C10.296 8.20502 9.89502 8.60504 9.89502 9.10004L9.89502 16.83C9.89502 17.323 10.296 17.725 10.79 17.725L29.213 17.725C30.2 17.725 31.001 18.525 31.001 19.513L31.001 24.14C31.001 25.1281 30.2 25.929 29.213 25.929L10.79 25.929C10.296 25.929 9.89502 26.328 9.89502 26.823L9.89502 34.742C9.89502 35.235 10.296 35.636 10.79 35.636L32.281 35.636C33.269 35.636 34.07 36.438 34.07 37.424L34.07 42.052C34.07 43.04 33.269 43.841 32.281 43.841L1.789 43.841C0.801025 43.841 0 43.04 0 42.052L0 1.789C0 0.801025 0.801025 0 1.789 0L1.789 0Z" transform="translate(383.015 27.874023)" id="Shape" fill="#FF0000" fill-rule="evenodd" stroke="none" />
        <path d="M32.102 0L37.918 0C38.907 0 39.707 0.801025 39.707 1.789L39.707 42.052C39.707 43.04 38.907 43.841 37.918 43.841L31.581 43.841C31.019 43.841 30.491 43.577 30.152 43.1281L11.066 17.793C10.549 17.1071 9.45697 17.472 9.45697 18.3311L9.45697 42.052C9.45697 43.04 8.65698 43.841 7.66797 43.841L1.78998 43.841C0.800964 43.841 0 43.04 0 42.052L0 1.789C0 0.801025 0.800964 0 1.78998 0L8.12598 0C8.68896 0 9.21796 0.265015 9.55597 0.71405L28.704 26.169C29.22 26.856 30.313 26.491 30.313 25.631L30.313 1.789C30.313 0.801025 31.114 0 32.102 0L32.102 0Z" transform="translate(424.85004 27.874023)" id="Shape" fill="#FF0000" fill-rule="evenodd" stroke="none" />
        <path d="M1.789 0L8.10699 0C9.09503 0 9.896 0.801025 9.896 1.789L9.896 17.394C9.896 17.888 10.296 18.288 10.79 18.288L28.855 18.288C29.349 18.288 29.749 17.888 29.749 17.394L29.749 1.789C29.749 0.801025 30.55 0 31.538 0L37.856 0C38.844 0 39.644 0.801025 39.644 1.789L39.644 42.052C39.644 43.04 38.844 43.841 37.856 43.841L31.538 43.841C30.55 43.841 29.749 43.04 29.749 42.052L29.749 27.449C29.749 26.955 29.349 26.555 28.855 26.555L10.79 26.555C10.296 26.555 9.896 26.955 9.896 27.449L9.896 42.052C9.896 43.04 9.09503 43.841 8.10699 43.841L1.789 43.841C0.801025 43.841 0 43.04 0 42.052L0 1.789C0 0.801025 0.801025 0 1.789 0L1.789 0Z" transform="translate(290.073 83.40405)" id="Shape" fill="#FF0000" fill-rule="evenodd" stroke="none" />
        <path d="M16.91 10.49C14.822 11.722 13.173 13.402 11.963 15.532C10.751 17.661 10.146 20 10.146 22.546C10.146 25.135 10.762 27.494 11.994 29.623C13.225 31.753 14.875 33.443 16.941 34.696C19.009 35.948 21.252 36.575 23.675 36.575C26.0959 36.575 28.318 35.96 30.345 34.726C32.369 33.496 33.976 31.805 35.167 29.654C36.356 27.505 36.952 25.135 36.952 22.546C36.952 20 36.356 17.661 35.167 15.532C33.976 13.402 32.369 11.722 30.345 10.49C28.318 9.25897 26.0959 8.64197 23.675 8.64197C21.252 8.64197 18.998 9.25897 16.91 10.49L16.91 10.49ZM35.512 2.94299C39.101 4.90601 41.931 7.60901 43.9969 11.053C46.064 14.498 47.097 18.329 47.097 22.546C47.097 26.763 46.064 30.604 43.9969 34.07C41.931 37.536 39.101 40.26 35.512 42.243C31.92 44.226 27.933 45.217 23.549 45.217C19.165 45.217 15.178 44.226 11.587 42.243C7.995 40.26 5.16699 37.546 3.09998 34.101C1.034 30.656 0 26.803 0 22.546C0 18.329 1.034 14.498 3.09998 11.053C5.16699 7.60901 7.98499 4.90601 11.556 2.94299C15.125 0.980957 19.123 0 23.549 0C27.933 0 31.92 0.980957 35.512 2.94299L35.512 2.94299Z" transform="translate(336.23004 82.716064)" id="Shape" fill="#FF0000" fill-rule="evenodd" stroke="none" />
        <path d="M24.8295 9.73798C22.3025 8.92401 20.1425 8.51697 18.3475 8.51697C16.6345 8.51697 15.2785 8.82996 14.2755 9.45697C13.2735 10.083 12.7725 11.002 12.7725 12.212C12.7725 13.757 13.4935 14.936 14.9335 15.751C16.3745 16.564 18.5985 17.41 21.6035 18.287C24.6095 19.164 27.0835 20.041 29.0255 20.918C30.9675 21.795 32.6265 23.109 34.0045 24.863C35.3825 26.617 36.0705 28.934 36.0705 31.815C36.0705 34.613 35.3295 37.024 33.8485 39.049C32.3655 41.074 30.3295 42.608 27.7415 43.652C25.1515 44.695 22.2085 45.217 18.9105 45.217C15.3615 45.217 11.8745 44.592 8.45148 43.339C5.53949 42.273 2.95947 40.876 0.711487 39.145C0.0324707 38.623 -0.195496 37.701 0.180481 36.93L2.50549 32.168C3.00549 31.146 4.30847 30.856 5.21448 31.544C7.0025 32.902 8.97852 34.036 11.1445 34.946C14.0255 36.158 16.6555 36.762 19.0355 36.762C21.0815 36.762 22.6785 36.386 23.8275 35.635C24.9755 34.884 25.5495 33.799 25.5495 32.379C25.5495 31.252 25.1625 30.322 24.3915 29.592C23.6175 28.861 22.6375 28.266 21.4465 27.806C20.2575 27.347 18.6175 26.826 16.5305 26.241C13.5245 25.406 11.0715 24.571 9.17151 23.736C7.27148 22.901 5.63348 21.628 4.25549 19.916C2.8775 18.204 2.18848 15.928 2.18848 13.089C2.18848 10.459 2.89746 8.15198 4.3175 6.16797C5.73651 4.185 7.72046 2.66101 10.2675 1.59601C12.8135 0.531006 15.7795 0 19.1615 0C22.1675 0 25.1315 0.437988 28.0545 1.31396C30.3795 2.01099 32.4925 2.89398 34.3945 3.96198C35.2125 4.41998 35.5365 5.42999 35.1425 6.27899L32.8205 11.263C32.3905 12.189 31.2685 12.574 30.3695 12.092C28.6015 11.143 26.7545 10.359 24.8295 9.73798L24.8295 9.73798Z" transform="translate(386.71252 82.591064)" id="Shape" fill="#FF0000" fill-rule="evenodd" stroke="none" />
        <path d="M24.519 21.138C26.001 19.865 26.743 17.996 26.743 15.533C26.743 13.112 26.001 11.284 24.519 10.052C23.037 8.82196 20.897 8.20496 18.1 8.20496L10.79 8.20496C10.296 8.20496 9.89606 8.60596 9.89606 9.099L9.89606 22.154C9.89606 22.6479 10.296 23.048 10.79 23.048L18.1 23.048C20.897 23.048 23.037 22.412 24.519 21.138L24.519 21.138ZM31.565 3.97699C34.613 6.62897 36.137 10.376 36.137 15.219C36.137 20.314 34.603 24.269 31.5341 27.087C28.465 29.9059 24.1541 31.315 18.601 31.315L9.89606 31.315L9.89606 42.052C9.89606 43.04 9.09503 43.841 8.10706 43.841L1.789 43.841C0.801025 43.841 0 43.04 0 42.052L0 1.789C0 0.800964 0.801025 0 1.789 0L18.601 0C24.196 0 28.517 1.32599 31.565 3.97699L31.565 3.97699Z" transform="translate(429.735 83.403076)" id="Shape" fill="#FF0000" fill-rule="evenodd" stroke="none" />
        <path d="M1.789 0L8.10602 0C9.09497 0 9.89502 0.801025 9.89502 1.789L9.89502 42.052C9.89502 43.04 9.09497 43.841 8.10602 43.841L1.789 43.841C0.800964 43.841 0 43.04 0 42.052L0 1.789C0 0.801025 0.800964 0 1.789 0L1.789 0Z" transform="translate(472.19702 83.40405)" id="Shape" fill="#FF0000" fill-rule="evenodd" stroke="none" />
        <path d="M1.789 0L34.85 0C35.838 0 36.639 0.801025 36.639 1.789L36.639 6.604C36.639 7.59198 35.838 8.39301 34.85 8.39301L23.235 8.39301L23.235 42.052C23.235 43.04 22.435 43.841 21.447 43.841L15.129 43.841C14.142 43.841 13.341 43.04 13.341 42.052L13.341 8.39301L1.789 8.39301C0.800964 8.39301 0 7.59198 0 6.604L0 1.789C0 0.801025 0.800964 0 1.789 0L1.789 0Z" transform="translate(487.47803 83.40405)" id="Shape" fill="#FF0000" fill-rule="evenodd" stroke="none" />
        <path d="M17.3041 27.369L28.4881 27.369C29.1221 27.369 29.5551 26.727 29.3171 26.14L23.7501 12.375C23.4501 11.631 22.3971 11.629 22.0931 12.372L16.4761 26.137C16.2361 26.725 16.6681 27.369 17.3041 27.369L17.3041 27.369ZM36.001 42.723L33.235 35.882C33.0981 35.544 32.7701 35.323 32.4061 35.323L13.3201 35.323C12.9551 35.323 12.6271 35.544 12.4911 35.882L9.72406 42.723C9.45007 43.398 8.79504 43.841 8.06604 43.841L1.79004 43.841C0.502075 43.841 -0.362915 42.52 0.150085 41.339L17.6351 1.07599C17.9191 0.422974 18.5641 0 19.2761 0L27.1301 0C27.8461 0 28.493 0.427979 28.7751 1.086L45.9731 41.349C46.4771 42.529 45.6121 43.841 44.3281 43.841L37.6591 43.841C36.9301 43.841 36.2751 43.398 36.001 42.723L36.001 42.723Z" transform="translate(520.79395 83.40405)" id="Shape" fill="#FF0000" fill-rule="evenodd" stroke="none" />
        <path d="M1.78802 0L8.10602 0C9.09497 0 9.89502 0.801025 9.89502 1.789L9.89502 34.304C9.89502 34.798 10.296 35.198 10.79 35.198L26.895 35.198C27.883 35.198 28.684 35.999 28.684 36.986L28.684 42.052C28.684 43.04 27.883 43.841 26.895 43.841L1.78802 43.841C0.801025 43.841 0 43.04 0 42.052L0 1.789C0 0.801025 0.801025 0 1.78802 0L1.78802 0Z" transform="translate(572.40295 83.40405)" id="Shape" fill="#FF0000" fill-rule="evenodd" stroke="none" />
        <path d="M264.511 155.119L8.50403 155.119C3.80701 155.119 0 151.311 0 146.615L0 8.50397C0 3.80701 3.80701 0 8.50403 0L264.511 0C269.208 0 273.015 3.80701 273.015 8.50397L273.015 146.615C273.015 151.311 269.208 155.119 264.511 155.119L264.511 155.119Z" id="Shape" fill="#FF0000" fill-rule="evenodd" stroke="none" />
        <path d="M36.468 22.624C31.964 25.281 28.408 28.905 25.798 33.4969C23.185 38.09 21.881 43.134 21.881 48.625C21.881 54.209 23.208 59.295 25.865 63.888C28.52 68.479 32.078 72.127 36.535 74.828C40.993 77.529 45.832 78.88 51.055 78.88C56.277 78.88 61.072 77.553 65.44 74.895C69.806 72.24 73.274 68.594 75.84 63.955C78.406 59.318 79.69 54.209 79.69 48.625C79.69 43.134 78.406 38.09 75.84 33.4969C73.274 28.905 69.806 25.281 65.44 22.624C61.072 19.97 56.277 18.64 51.055 18.64C45.832 18.64 40.969 19.97 36.468 22.624L36.468 22.624ZM76.583 6.349C84.326 10.582 90.427 16.4109 94.885 23.84C99.342 31.269 101.571 39.531 101.571 48.625C101.571 57.721 99.342 66.004 94.885 73.478C90.427 80.952 84.326 86.828 76.583 91.103C68.838 95.382 60.239 97.52 50.785 97.52C41.33 97.52 32.73 95.382 24.987 91.103C17.242 86.828 11.143 80.974 6.685 73.545C2.228 66.116 0 57.81 0 48.625C0 39.531 2.228 31.269 6.685 23.84C11.143 16.4109 17.221 10.582 24.92 6.349C32.618 2.117 41.239 0 50.785 0C60.239 0 68.838 2.117 76.583 6.349L76.583 6.349Z" transform="translate(30.588013 28.799072)" id="Shape" fill="#FFFFFF" fill-rule="evenodd" stroke="none" />
        <path d="M3.668 0L17.673 0C19.699 0 21.341 1.64301 21.341 3.66797L21.341 37.605C21.341 38.618 22.162 39.439 23.175 39.439L62.323 39.439C63.336 39.439 64.157 38.618 64.157 37.605L64.157 3.66797C64.157 1.64301 65.799 0 67.825 0L81.83 0C83.856 0 85.498 1.64301 85.498 3.66797L85.498 90.88C85.498 92.905 83.856 94.547 81.83 94.547L67.825 94.547C65.799 94.547 64.157 92.905 64.157 90.88L64.157 59.103C64.157 58.09 63.336 57.269 62.323 57.269L23.175 57.269C22.162 57.269 21.341 58.09 21.341 59.103L21.341 90.88C21.341 92.905 19.699 94.547 17.673 94.547L3.668 94.547C1.642 94.547 0 92.905 0 90.88L0 3.66797C0 1.64301 1.642 0 3.668 0L3.668 0Z" transform="translate(152.51202 30.28601)" id="Shape" fill="#FFFFFF" fill-rule="evenodd" stroke="none" />
      </g>
    </g>
  </g>
</svg>