<svg xmlns="http://www.w3.org/2000/svg" xmlns:xlink="http://www.w3.org/1999/xlink" version="1.1" x="0px" y="0px" viewBox="0 0 100 125" style="enable-background:new 0 0 100 100;" xml:space="preserve" fill="#ffff"><g><path d="M50.0000305,54.4130554c-18.7296143,0-33.9671021,15.2374878-33.9671021,33.967041v2.1396484h67.9341431v-2.1396484   C83.9670715,69.6505432,68.7295837,54.4130554,50.0000305,54.4130554z M20.3885193,86.240448   c1.1001587-15.3751221,13.9610596-27.5480957,29.6115112-27.5480957c15.6503906,0,28.5113525,12.1729736,29.6114502,27.5480957   H20.3885193z"/><path d="M50.0000305,53.3432312c12.0930176,0,21.9314575-9.838501,21.9314575-21.9315186   c0-3.7341309-0.9447021-7.3592529-2.734314-10.5939941l0.0626221-0.0578003l-1.0155029-1.5192261   c-0.0003662-0.0005493-0.0006714-0.0011597-0.0010376-0.0016479l-1.390564-2.0803833l-0.1082153,0.0998535   c-4.1459961-4.9072266-10.2391968-7.7782593-16.7444458-7.7782593c-10.973938,0-20.0531006,7.9771729-21.6673584,18.5689087   l-0.1416626-0.0281982l-0.1002808,2.5016479c0,0.0002441,0,0.0004883,0,0.0007324l-0.0731201,1.8262939l0.0751343,0.0149536   C28.5937805,44.0169373,38.226532,53.3432312,50.0000305,53.3432312z M50.0000305,13.759552   c5.2811279,0,10.2294312,2.3485718,13.5692139,6.362793c-0.449585,0.3762207-0.9057617,0.7423706-1.3695679,1.0966187   c-0.0893555,0.0682373-0.1818848,0.1312866-0.2717285,0.1987305c-0.3848877,0.2888184-0.7720947,0.5739136-1.1660767,0.8476562   c-0.1699829,0.118103-0.3444214,0.2285767-0.5160522,0.3438721c-0.3196411,0.2147217-0.6390991,0.4297485-0.9643555,0.6345825   c-0.197998,0.1246948-0.3999634,0.2420654-0.6000366,0.3631592c-0.3045654,0.1843262-0.6090088,0.3688965-0.9180908,0.5446777   c-0.2145996,0.1220093-0.4324951,0.2374268-0.6491699,0.3552856c-0.3009644,0.1636353-0.6020508,0.3268433-0.9068604,0.4823608   c-0.225708,0.1152344-0.4541016,0.2247925-0.6818848,0.3355103c-0.3010864,0.1463623-0.6027832,0.2913818-0.9074707,0.4298706   c-0.2346802,0.1066895-0.4713135,0.2088623-0.7080078,0.3108521c-0.3032837,0.1307373-0.6074829,0.2590332-0.9139404,0.382019   c-0.2414551,0.0968628-0.4842529,0.1903687-0.7276001,0.2824097c-0.3069458,0.1161499-0.6152344,0.2286987-0.9251099,0.3370361   c-0.246582,0.0863037-0.4939575,0.1703491-0.7423706,0.2516479c-0.3115845,0.1019897-0.6247559,0.1992798-0.9390259,0.293457   c-0.25,0.0749512-0.5003052,0.1489258-0.7519531,0.2188721c-0.3181763,0.088501-0.6381836,0.1708984-0.9588013,0.2513428   c-0.2509766,0.0629883-0.5018311,0.1263428-0.7542725,0.1843872c-0.3261108,0.0750122-0.6542358,0.1425781-0.982605,0.2092896   c-0.2504883,0.0508423-0.5004883,0.1034546-0.7521973,0.1494751c-0.3365479,0.0615845-0.6752319,0.1142578-1.013855,0.1670532   c-0.2460327,0.0383301-0.491333,0.079834-0.7383423,0.1135864c-0.355835,0.048584-0.7137451,0.0866699-1.0715332,0.1255493   c-0.2321777,0.0252075-0.4633789,0.0551147-0.6962891,0.0762329c-0.3971558,0.0360107-0.7963867,0.0598145-1.1955566,0.0838623   c-0.1958618,0.0117798-0.390686,0.029541-0.5869751,0.0384521c-0.5961914,0.0270386-1.1941528,0.0418701-1.7938843,0.0418701   c-0.5817261,0-1.1641846-0.017334-1.7466431-0.0432739c-0.1723633-0.0076904-0.3447266-0.0189209-0.5170288-0.0288696   c-0.4300537-0.0248413-0.8598022-0.0565796-1.2891846-0.095459c-0.1737671-0.0157471-0.3476562-0.0303955-0.5212402-0.0484619   c-0.5601196-0.0581055-1.1194458-0.1251221-1.6767578-0.2070923c-0.0205688-0.0029907-0.0413208-0.0050049-0.0618896-0.0080566   c-0.0053711-0.0007935-0.0106812-0.0019531-0.0160522-0.0028076C33.7782898,20.2461243,41.1203308,13.759552,50.0000305,13.759552z    M34.0090027,33.3315735c0.0904541,0.0090332,0.1810913,0.0147095,0.2716064,0.0231934   c0.553833,0.052002,1.1082153,0.0922852,1.6630859,0.1231689c0.1700439,0.0094604,0.3398438,0.0186157,0.5098877,0.026123   c0.6376343,0.0280762,1.2752686,0.0473022,1.9120483,0.0473022c0.6599121,0,1.317749-0.0166016,1.9737549-0.0460205   c0.2168579-0.0097656,0.4321289-0.0288696,0.6484985-0.0418091c0.4384766-0.0261841,0.87677-0.0527954,1.3130493-0.092041   c0.256897-0.0231323,0.5120239-0.0549927,0.7680664-0.0826416c0.3933716-0.0424194,0.7866821-0.085022,1.1779175-0.1380005   c0.2719116-0.0368652,0.5419922-0.0809937,0.8127441-0.1228638c0.3731689-0.0577393,0.7458496-0.1166382,1.1167603-0.18396   c0.2769165-0.0502319,0.5522461-0.1060791,0.8278809-0.1616211c0.3619385-0.072937,0.7229614-0.1484375,1.0825195-0.2305298   c0.2775269-0.0632935,0.553894-0.1304932,0.829895-0.1992188c0.3547363-0.0883789,0.7081299-0.1807861,1.0602417-0.2779541   c0.274353-0.0756836,0.5479126-0.1535034,0.8205566-0.2344971c0.3513794-0.1044312,0.7006226-0.2145386,1.0490723-0.3278198   c0.2678833-0.0870361,0.5355225-0.1743774,0.8015747-0.2666016c0.3512573-0.1218262,0.699646-0.2509155,1.0476685-0.3817139   c0.2576294-0.0968628,0.5157471-0.1920166,0.7715454-0.2937622c0.3568115-0.1419067,0.7097778-0.2927856,1.0627441-0.4442139   c0.2415771-0.1035156,0.484314-0.2037354,0.723999-0.3117065c0.3751831-0.1690674,0.7454834-0.3488159,1.1159058-0.5285645   c0.2116089-0.1027222,0.425415-0.2002563,0.635437-0.3063965c0.4598389-0.2324829,0.9136353-0.477417,1.3654785-0.7263794   c0.1151733-0.0635376,0.2330322-0.1218262,0.3477173-0.1864014c0.5640869-0.3175659,1.1212769-0.6485596,1.671814-0.9918213   c0.1581421-0.0985718,0.3118896-0.204834,0.4689331-0.305542c0.3899536-0.2501831,0.7792358-0.5014648,1.1618652-0.7645264   c0.204895-0.1408691,0.4049683-0.2896729,0.607666-0.4341431c0.3283691-0.2341309,0.6566772-0.4681396,0.979187-0.711792   c0.2169189-0.1638794,0.4293213-0.3345337,0.6434937-0.5027466c0.2171021-0.1704712,0.4381714-0.3348389,0.6524658-0.5097046   c1.1489258,2.3775635,1.7481079,4.9873657,1.7481079,7.6653442c0,9.7334595-7.9187012,17.6521606-17.6521606,17.6521606   c-9.1483765,0-16.6933594-6.994873-17.5675659-15.9173584C32.9567566,33.2181702,33.4825134,33.2789001,34.0090027,33.3315735z"/></g></svg>