<?xml version="1.0" encoding="utf-8"?><svg version="1.1" id="Layer_1" xmlns="http://www.w3.org/2000/svg" xmlns:xlink="http://www.w3.org/1999/xlink" x="0px" y="0px" viewBox="0 0 122.88 127.03" style="enable-background:new 0 0 122.88 127.03" xml:space="preserve"><g><path d="M117.28,117.64l-2.32-2.67l-11,11l-0.01-0.01c-1.23,1.23-3.23,1.25-4.48,0.03l-11.21-10.9l-10.98,10.55 c-1.2,1.24-3.17,1.3-4.46,0.12L61.18,115L50.6,125.89c-0.06,0.07-0.12,0.13-0.19,0.21c-1.25,1.25-3.28,1.25-4.52,0L34.8,115 l-11.43,10.9l0,0c-1.25,1.19-3.24,1.17-4.46-0.06L8.03,114.85l-2.26,2.61c-0.58,0.79-1.52,1.29-2.57,1.29 c-1.77,0-3.19-1.44-3.19-3.19V3.19C0,1.43,1.43,0,3.19,0h116.49c1.77,0,3.19,1.43,3.19,3.19v112.35h-0.01 c0,0.89-0.37,1.78-1.11,2.41C120.44,119.12,118.42,118.97,117.28,117.64L117.28,117.64L117.28,117.64z M19.28,18.31H45.2v6.82h-8.7 v20.76h-8.51V25.13h-8.7V18.31L19.28,18.31z M63.38,41.34h-9.65l-1.39,4.54h-8.7l10.38-27.58h9.33l10.33,27.58h-8.92L63.38,41.34 L63.38,41.34z M61.57,35.37l-3.01-9.91l-3.02,9.91H61.57L61.57,35.37z M74.48,18.31h9.4l4.88,8.49l4.74-8.49h9.28l-8.57,13.36 l9.38,14.22h-9.59l-5.41-8.86l-5.45,8.86h-9.51l9.51-14.37L74.48,18.31L74.48,18.31z M91.22,88.04c1.3,0,2.36,1.05,2.36,2.36 c0,1.3-1.05,2.36-2.36,2.36H24.37c-1.3,0-2.36-1.05-2.36-2.36c0-1.3,1.05-2.36,2.36-2.36H91.22L91.22,88.04L91.22,88.04z M104.58,72.35c1.3,0,2.36,1.05,2.36,2.36c0,1.3-1.05,2.36-2.36,2.36H23.7c-1.3,0-2.36-1.05-2.36-2.36c0-1.3,1.05-2.36,2.36-2.36 H104.58L104.58,72.35L104.58,72.35z M104.7,56.64c1.3,0,2.36,1.05,2.36,2.36c0,1.3-1.06,2.36-2.36,2.36H23.7 c-1.3,0-2.36-1.05-2.36-2.36c0-1.3,1.05-2.36,2.36-2.36H104.7L104.7,56.64L104.7,56.64z M116.49,6.4H6.4v100.95 c1.13-0.59,2.54-0.47,3.57,0.41c0.06,0.05,0.12,0.1,0.18,0.17l0,0l11.09,11.21l11.42-10.88c1.26-1.2,3.24-1.17,4.46,0.05l0.01-0.01 l11,11l10.65-10.97c1.21-1.24,3.18-1.29,4.45-0.12l0,0l11.73,10.84l11.13-10.67c1.25-1.2,3.24-1.18,4.46,0.03l11.14,10.82 l11.2-11.2c0.96-0.98,2.43-1.19,3.62-0.63V6.4L116.49,6.4z"/></g></svg>